<svg width="22" height="22" viewBox="0 0 22 22" fill="none" xmlns="http://www.w3.org/2000/svg">

<path d="M20.1666 11.0002C20.1666 16.0628 16.0626 20.1668 11 20.1668M20.1666 11.0002C20.1666 5.93755 16.0626 1.8335 11 1.8335M20.1666 11.0002H1.83331M11 20.1668C5.93737 20.1668 1.83331 16.0628 1.83331 11.0002M11 20.1668C13.2928 17.6567 14.5958 14.3991 14.6666 11.0002C14.5958 7.60119 13.2928 4.34365 11 1.8335M11 20.1668C8.70714 17.6567 7.40412 14.3991 7.33331 11.0002C7.40412 7.60119 8.70714 4.34365 11 1.8335M1.83331 11.0002C1.83331 5.93755 5.93737 1.8335 11 1.8335" stroke="white" stroke-width="2" stroke-linecap="round" stroke-linejoin="round"/>


</svg>
