<svg width="21" height="21" viewBox="0 0 21 21" fill="none" xmlns="http://www.w3.org/2000/svg">
<path d="M18.235 4.03388C17.7881 3.58676 17.2574 3.23207 16.6734 2.99008C16.0894 2.74809 15.4634 2.62354 14.8312 2.62354C14.1991 2.62354 13.5731 2.74809 12.989 2.99008C12.405 3.23207 11.8744 3.58676 11.4275 4.03388L10.5 4.96138L9.57248 4.03388C8.66975 3.13115 7.44539 2.624 6.16873 2.624C4.89208 2.624 3.66771 3.13115 2.76498 4.03388C1.86225 4.93661 1.3551 6.16098 1.3551 7.43763C1.3551 8.71429 1.86225 9.93865 2.76498 10.8414L10.5 18.5764L18.235 10.8414C18.6821 10.3945 19.0368 9.86384 19.2788 9.27982C19.5208 8.69579 19.6453 8.06981 19.6453 7.43763C19.6453 6.80546 19.5208 6.17947 19.2788 5.59545C19.0368 5.01142 18.6821 4.48079 18.235 4.03388Z" stroke="white" stroke-width="2" stroke-linecap="round" stroke-linejoin="round"/>
</svg>
