<svg width="14" height="14" viewBox="0 0 14 14" fill="none" xmlns="http://www.w3.org/2000/svg">
<path d="M5.81478 0.670096C6.12702 -0.223357 7.39056 -0.223358 7.7028 0.670095L8.90302 4.10444C8.99922 4.37969 9.21075 4.59925 9.48224 4.70562L12.8824 6.03779C13.7293 6.36962 13.7293 7.56813 12.8824 7.89996L9.48224 9.23213C9.21075 9.33849 8.99922 9.55805 8.90302 9.8333L7.7028 13.2676C7.39056 14.1611 6.12702 14.1611 5.81478 13.2676L4.61455 9.8333C4.51836 9.55805 4.30682 9.33849 4.03534 9.23213L0.635219 7.89996C-0.211715 7.56813 -0.211713 6.36961 0.635221 6.03779L4.03534 4.70562C4.30682 4.59925 4.51836 4.37969 4.61455 4.10444L5.81478 0.670096Z" fill="currentColor"/>
</svg>
