<svg width="26" height="26" viewBox="0 0 26 26" fill="none" xmlns="http://www.w3.org/2000/svg">
<path d="M13 16.25C14.795 16.25 16.25 14.795 16.25 13C16.25 11.2051 14.795 9.75004 13 9.75004C11.2051 9.75004 9.75004 11.2051 9.75004 13C9.75004 14.795 11.2051 16.25 13 16.25Z" stroke="currentColor" stroke-width="2" stroke-linecap="round" stroke-linejoin="round"/>
<path d="M21.0167 16.25C20.8725 16.5768 20.8295 16.9392 20.8932 17.2907C20.9569 17.6421 21.1245 17.9664 21.3742 18.2217L21.4392 18.2867C21.6407 18.4879 21.8005 18.7269 21.9095 18.9899C22.0185 19.2529 22.0747 19.5349 22.0747 19.8196C22.0747 20.1044 22.0185 20.3863 21.9095 20.6493C21.8005 20.9124 21.6407 21.1513 21.4392 21.3525C21.238 21.554 20.999 21.7138 20.736 21.8228C20.473 21.9319 20.191 21.988 19.9063 21.988C19.6216 21.988 19.3396 21.9319 19.0766 21.8228C18.8136 21.7138 18.5746 21.554 18.3734 21.3525L18.3084 21.2875C18.0531 21.0378 17.7288 20.8703 17.3773 20.8065C17.0259 20.7428 16.6635 20.7858 16.3367 20.93C16.0163 21.0674 15.743 21.2954 15.5505 21.586C15.3581 21.8767 15.2548 22.2173 15.2534 22.5659V22.75C15.2534 23.3247 15.0251 23.8758 14.6188 24.2821C14.2124 24.6884 13.6613 24.9167 13.0867 24.9167C12.5121 24.9167 11.961 24.6884 11.5546 24.2821C11.1483 23.8758 10.92 23.3247 10.92 22.75V22.6525C10.9117 22.294 10.7956 21.9462 10.5869 21.6545C10.3783 21.3627 10.0867 21.1405 9.75004 21.0167C9.42329 20.8725 9.06083 20.8295 8.7094 20.8932C8.35797 20.9569 8.03369 21.1245 7.77837 21.3742L7.71337 21.4392C7.51215 21.6407 7.27319 21.8005 7.01016 21.9095C6.74713 22.0185 6.46519 22.0747 6.18046 22.0747C5.89572 22.0747 5.61378 22.0185 5.35075 21.9095C5.08772 21.8005 4.84877 21.6407 4.64754 21.4392C4.44609 21.238 4.28628 20.999 4.17724 20.736C4.06821 20.473 4.01209 20.191 4.01209 19.9063C4.01209 19.6216 4.06821 19.3396 4.17724 19.0766C4.28628 18.8136 4.44609 18.5746 4.64754 18.3734L4.71254 18.3084C4.96229 18.0531 5.12982 17.7288 5.19355 17.3773C5.25727 17.0259 5.21425 16.6635 5.07004 16.3367C4.93271 16.0163 4.70469 15.743 4.41404 15.5505C4.1234 15.3581 3.78281 15.2548 3.43421 15.2534H3.25004C2.6754 15.2534 2.1243 15.0251 1.71798 14.6188C1.31165 14.2124 1.08337 13.6613 1.08337 13.0867C1.08337 12.5121 1.31165 11.961 1.71798 11.5546C2.1243 11.1483 2.6754 10.92 3.25004 10.92H3.34754C3.70612 10.9117 4.05388 10.7956 4.34561 10.5869C4.63735 10.3783 4.85957 10.0867 4.98337 9.75004C5.12758 9.42329 5.1706 9.06083 5.10688 8.7094C5.04316 8.35797 4.87562 8.03369 4.62587 7.77837L4.56087 7.71337C4.35942 7.51215 4.19961 7.27319 4.09058 7.01016C3.98154 6.74713 3.92542 6.46519 3.92542 6.18046C3.92542 5.89572 3.98154 5.61378 4.09058 5.35075C4.19961 5.08772 4.35942 4.84877 4.56087 4.64754C4.7621 4.44609 5.00106 4.28628 5.26409 4.17724C5.52712 4.06821 5.80906 4.01209 6.09379 4.01209C6.37852 4.01209 6.66047 4.06821 6.92349 4.17724C7.18652 4.28628 7.42548 4.44609 7.62671 4.64754L7.69171 4.71254C7.94703 4.96229 8.27131 5.12982 8.62274 5.19355C8.97416 5.25727 9.33662 5.21425 9.66337 5.07004H9.75004C10.0705 4.93271 10.3437 4.70469 10.5362 4.41404C10.7287 4.1234 10.832 3.78281 10.8334 3.43421V3.25004C10.8334 2.6754 11.0616 2.1243 11.468 1.71798C11.8743 1.31165 12.4254 1.08337 13 1.08337C13.5747 1.08337 14.1258 1.31165 14.5321 1.71798C14.9384 2.1243 15.1667 2.6754 15.1667 3.25004V3.34754C15.1681 3.69614 15.2714 4.03673 15.4639 4.32738C15.6564 4.61803 15.9296 4.84605 16.25 4.98337C16.5768 5.12758 16.9392 5.1706 17.2907 5.10688C17.6421 5.04316 17.9664 4.87562 18.2217 4.62587L18.2867 4.56087C18.4879 4.35942 18.7269 4.19961 18.9899 4.09058C19.2529 3.98154 19.5349 3.92542 19.8196 3.92542C20.1044 3.92542 20.3863 3.98154 20.6493 4.09058C20.9124 4.19961 21.1513 4.35942 21.3525 4.56087C21.554 4.7621 21.7138 5.00106 21.8228 5.26409C21.9319 5.52712 21.988 5.80906 21.988 6.09379C21.988 6.37852 21.9319 6.66047 21.8228 6.92349C21.7138 7.18652 21.554 7.42548 21.3525 7.62671L21.2875 7.69171C21.0378 7.94703 20.8703 8.27131 20.8065 8.62274C20.7428 8.97416 20.7858 9.33662 20.93 9.66337V9.75004C21.0674 10.0705 21.2954 10.3437 21.586 10.5362C21.8767 10.7287 22.2173 10.832 22.5659 10.8334H22.75C23.3247 10.8334 23.8758 11.0616 24.2821 11.468C24.6884 11.8743 24.9167 12.4254 24.9167 13C24.9167 13.5747 24.6884 14.1258 24.2821 14.5321C23.8758 14.9384 23.3247 15.1667 22.75 15.1667H22.6525C22.3039 15.1681 21.9634 15.2714 21.6727 15.4639C21.3821 15.6564 21.154 15.9296 21.0167 16.25Z" stroke="currentColor" stroke-width="2" stroke-linecap="round" stroke-linejoin="round"/>
</svg>
