<svg width="16" height="16" viewBox="0 0 16 16" fill="none" xmlns="http://www.w3.org/2000/svg">
<path d="M6.86529 0.610092C7.20974 -0.20332 8.36252 -0.203317 8.70697 0.610094L10.1822 4.09389C10.3233 4.42695 10.6332 4.6579 10.9927 4.69783L14.6815 5.10766C15.5271 5.2016 15.8765 6.24148 15.2593 6.82704L12.4339 9.5072C12.1842 9.7441 12.0739 10.0928 12.1419 10.4302L12.9195 14.2896C13.0916 15.1437 12.165 15.7941 11.4203 15.3419L8.3051 13.4506C7.98621 13.257 7.58606 13.257 7.26717 13.4506L4.15201 15.3419C3.40722 15.7941 2.48064 15.1437 2.65274 14.2896L3.43039 10.4302C3.49839 10.0928 3.38805 9.7441 3.13832 9.5072L0.313004 6.82704C-0.304267 6.24148 0.0451869 5.2016 0.890809 5.10766L4.57962 4.69783C4.9391 4.6579 5.249 4.42695 5.39004 4.09389L6.86529 0.610092Z" fill="#FFEA00"/>
</svg>
